<svg data-v-423bf9ae="" xmlns="http://www.w3.org/2000/svg" viewBox="0 0 466 90" class="iconLeft"><!----><!----><!----><g data-v-423bf9ae="" id="41594972-fcb6-4138-917a-9c192d6799b5" fill="white" transform="matrix(4.158004344869004,0,0,4.158004344869004,104.84407805519109,3.02494558041996)"><path d="M4.93 9.94L3.66 9.94L3.66 13.64L1.24 13.64L1.24 3.63L4.84 3.63L4.84 3.63Q5.82 3.63 6.54 3.84L6.54 3.84L6.54 3.84Q7.27 4.05 7.75 4.41L7.75 4.41L7.75 4.41Q8.23 4.77 8.47 5.24L8.47 5.24L8.47 5.24Q8.71 5.71 8.71 6.23L8.71 6.23L8.71 6.23Q8.71 6.71 8.53 7.13L8.53 7.13L8.53 7.13Q8.35 7.55 8.07 7.90L8.07 7.90L8.07 7.90Q7.79 8.25 7.45 8.54L7.45 8.54L7.45 8.54Q7.10 8.83 6.77 9.05L6.77 9.05L9.58 13.64L6.77 13.64L4.93 9.94ZM3.66 5.12L3.66 8.55L5.39 8.55L5.39 8.55Q5.58 8.45 5.75 8.28L5.75 8.28L5.75 8.28Q5.93 8.11 6.06 7.89L6.06 7.89L6.06 7.89Q6.19 7.66 6.28 7.39L6.28 7.39L6.28 7.39Q6.36 7.12 6.36 6.79L6.36 6.79L6.36 6.79Q6.36 6.44 6.25 6.13L6.25 6.13L6.25 6.13Q6.14 5.82 5.92 5.60L5.92 5.60L5.92 5.60Q5.70 5.37 5.38 5.25L5.38 5.25L5.38 5.25Q5.06 5.12 4.63 5.12L4.63 5.12L3.66 5.12ZM17.28 11.87L17.28 12.89L17.28 12.89Q16.91 13.15 16.53 13.32L16.53 13.32L16.53 13.32Q16.14 13.49 15.76 13.60L15.76 13.60L15.76 13.60Q15.37 13.70 15.00 13.74L15.00 13.74L15.00 13.74Q14.64 13.78 14.29 13.78L14.29 13.78L14.29 13.78Q13.42 13.78 12.71 13.55L12.71 13.55L12.71 13.55Q12.01 13.31 11.52 12.87L11.52 12.87L11.52 12.87Q11.03 12.42 10.76 11.77L10.76 11.77L10.76 11.77Q10.50 11.12 10.50 10.29L10.50 10.29L10.50 10.29Q10.50 9.34 10.83 8.60L10.83 8.60L10.83 8.60Q11.16 7.85 11.71 7.33L11.71 7.33L11.71 7.33Q12.26 6.82 12.98 6.54L12.98 6.54L12.98 6.54Q13.71 6.26 14.50 6.26L14.50 6.26L14.50 6.26Q15.18 6.26 15.76 6.47L15.76 6.47L15.76 6.47Q16.34 6.69 16.76 7.10L16.76 7.10L16.76 7.10Q17.18 7.51 17.41 8.12L17.41 8.12L17.41 8.12Q17.64 8.74 17.64 9.54L17.64 9.54L17.64 9.54Q17.64 9.80 17.62 10.01L17.62 10.01L17.62 10.01Q17.60 10.23 17.56 10.38L17.56 10.38L12.94 10.38L12.94 10.38Q12.94 10.86 13.11 11.20L13.11 11.20L13.11 11.20Q13.28 11.54 13.59 11.76L13.59 11.76L13.59 11.76Q13.90 11.98 14.33 12.09L14.33 12.09L14.33 12.09Q14.77 12.19 15.31 12.19L15.31 12.19L15.31 12.19Q15.50 12.19 15.74 12.17L15.74 12.17L15.74 12.17Q15.98 12.16 16.23 12.12L16.23 12.12L16.23 12.12Q16.49 12.09 16.75 12.03L16.75 12.03L16.75 12.03Q17.02 11.97 17.28 11.87L17.28 11.87ZM12.94 9.54L15.49 9.54L15.49 9.54Q15.49 9.07 15.40 8.73L15.40 8.73L15.40 8.73Q15.31 8.39 15.14 8.17L15.14 8.17L15.14 8.17Q14.98 7.94 14.75 7.84L14.75 7.84L14.75 7.84Q14.53 7.73 14.26 7.73L14.26 7.73L14.26 7.73Q13.97 7.73 13.72 7.85L13.72 7.85L13.72 7.85Q13.48 7.98 13.31 8.21L13.31 8.21L13.31 8.21Q13.13 8.44 13.04 8.78L13.04 8.78L13.04 8.78Q12.94 9.11 12.94 9.54L12.94 9.54ZM25.63 11.87L25.63 12.89L25.63 12.89Q25.27 13.15 24.88 13.32L24.88 13.32L24.88 13.32Q24.49 13.49 24.11 13.60L24.11 13.60L24.11 13.60Q23.73 13.70 23.36 13.74L23.36 13.74L23.36 13.74Q22.99 13.78 22.65 13.78L22.65 13.78L22.65 13.78Q21.77 13.78 21.07 13.55L21.07 13.55L21.07 13.55Q20.36 13.31 19.87 12.87L19.87 12.87L19.87 12.87Q19.38 12.42 19.12 11.77L19.12 11.77L19.12 11.77Q18.85 11.12 18.85 10.29L18.85 10.29L18.85 10.29Q18.85 9.34 19.18 8.60L19.18 8.60L19.18 8.60Q19.51 7.85 20.06 7.33L20.06 7.33L20.06 7.33Q20.61 6.82 21.33 6.54L21.33 6.54L21.33 6.54Q22.06 6.26 22.85 6.26L22.85 6.26L22.85 6.26Q23.54 6.26 24.11 6.47L24.11 6.47L24.11 6.47Q24.69 6.69 25.11 7.10L25.11 7.10L25.11 7.10Q25.53 7.51 25.76 8.12L25.76 8.12L25.76 8.12Q26.00 8.74 26.00 9.54L26.00 9.54L26.00 9.54Q26.00 9.80 25.97 10.01L25.97 10.01L25.97 10.01Q25.95 10.23 25.92 10.38L25.92 10.38L21.29 10.38L21.29 10.38Q21.29 10.86 21.46 11.20L21.46 11.20L21.46 11.20Q21.63 11.54 21.94 11.76L21.94 11.76L21.94 11.76Q22.25 11.98 22.69 12.09L22.69 12.09L22.69 12.09Q23.13 12.19 23.67 12.19L23.67 12.19L23.67 12.19Q23.86 12.19 24.09 12.17L24.09 12.17L24.09 12.17Q24.33 12.16 24.59 12.12L24.59 12.12L24.59 12.12Q24.84 12.09 25.11 12.03L25.11 12.03L25.11 12.03Q25.38 11.97 25.63 11.87L25.63 11.87ZM21.29 9.54L23.84 9.54L23.84 9.54Q23.84 9.07 23.75 8.73L23.75 8.73L23.75 8.73Q23.66 8.39 23.50 8.17L23.50 8.17L23.50 8.17Q23.33 7.94 23.11 7.84L23.11 7.84L23.11 7.84Q22.88 7.73 22.61 7.73L22.61 7.73L22.61 7.73Q22.32 7.73 22.08 7.85L22.08 7.85L22.08 7.85Q21.83 7.98 21.66 8.21L21.66 8.21L21.66 8.21Q21.49 8.44 21.39 8.78L21.39 8.78L21.39 8.78Q21.29 9.11 21.29 9.54L21.29 9.54ZM27.63 13.64L27.63 6.40L29.63 6.40L29.92 7.59L29.92 7.59Q30.15 7.38 30.44 7.15L30.44 7.15L30.44 7.15Q30.73 6.92 31.07 6.72L31.07 6.72L31.07 6.72Q31.41 6.52 31.79 6.39L31.79 6.39L31.79 6.39Q32.18 6.26 32.59 6.26L32.59 6.26L32.59 6.26Q33.10 6.26 33.51 6.44L33.51 6.44L33.51 6.44Q33.93 6.62 34.22 6.95L34.22 6.95L34.22 6.95Q34.52 7.28 34.69 7.74L34.69 7.74L34.69 7.74Q34.85 8.20 34.85 8.76L34.85 8.76L34.85 13.64L32.47 13.64L32.47 9.11L32.47 9.11Q32.47 8.80 32.39 8.57L32.39 8.57L32.39 8.57Q32.30 8.33 32.15 8.18L32.15 8.18L32.15 8.18Q32.01 8.02 31.81 7.94L31.81 7.94L31.81 7.94Q31.61 7.86 31.38 7.86L31.38 7.86L31.38 7.86Q31.01 7.86 30.67 8.05L30.67 8.05L30.67 8.05Q30.33 8.23 30.00 8.51L30.00 8.51L30.00 13.64L27.63 13.64ZM40.80 12.60L40.80 12.60L40.80 12.60Q40.60 12.77 40.34 12.97L40.34 12.97L40.34 12.97Q40.08 13.18 39.77 13.36L39.77 13.36L39.77 13.36Q39.46 13.54 39.12 13.66L39.12 13.66L39.12 13.66Q38.77 13.78 38.38 13.78L38.38 13.78L38.38 13.78Q37.91 13.78 37.55 13.60L37.55 13.60L37.55 13.60Q37.19 13.42 36.96 13.13L36.96 13.13L36.96 13.13Q36.72 12.83 36.60 12.46L36.60 12.46L36.60 12.46Q36.48 12.09 36.48 11.72L36.48 11.72L36.48 11.72Q36.48 11.22 36.71 10.77L36.71 10.77L36.71 10.77Q36.94 10.33 37.43 10.00L37.43 10.00L37.43 10.00Q37.91 9.67 38.66 9.47L38.66 9.47L38.66 9.47Q39.42 9.28 40.46 9.28L40.46 9.28L40.72 9.28L40.72 8.86L40.72 8.86Q40.72 8.31 40.38 8.02L40.38 8.02L40.38 8.02Q40.04 7.73 39.46 7.73L39.46 7.73L39.46 7.73Q39.21 7.73 38.93 7.79L38.93 7.79L38.93 7.79Q38.66 7.85 38.38 7.96L38.38 7.96L38.38 7.96Q38.10 8.07 37.83 8.21L37.83 8.21L37.83 8.21Q37.56 8.35 37.33 8.52L37.33 8.52L37.21 8.45L36.80 7.01L36.80 7.01Q37.69 6.60 38.47 6.43L38.47 6.43L38.47 6.43Q39.26 6.26 40.02 6.26L40.02 6.26L40.02 6.26Q40.67 6.26 41.23 6.38L41.23 6.38L41.23 6.38Q41.79 6.51 42.21 6.78L42.21 6.78L42.21 6.78Q42.62 7.06 42.86 7.51L42.86 7.51L42.86 7.51Q43.10 7.95 43.10 8.60L43.10 8.60L43.10 11.51L43.10 11.51Q43.10 11.63 43.12 11.75L43.12 11.75L43.12 11.75Q43.14 11.87 43.20 11.97L43.20 11.97L43.20 11.97Q43.25 12.07 43.35 12.13L43.35 12.13L43.35 12.13Q43.44 12.19 43.59 12.19L43.59 12.19L43.59 12.19Q43.69 12.19 43.78 12.17L43.78 12.17L43.78 12.17Q43.87 12.16 43.99 12.11L43.99 12.11L43.99 13.13L43.99 13.13Q43.54 13.43 43.10 13.61L43.10 13.61L43.10 13.61Q42.66 13.78 42.24 13.78L42.24 13.78L42.24 13.78Q41.70 13.78 41.35 13.47L41.35 13.47L41.35 13.47Q41.00 13.17 40.80 12.60ZM40.72 11.70L40.72 10.12L40.46 10.12L40.46 10.12Q39.92 10.12 39.57 10.20L39.57 10.20L39.57 10.20Q39.22 10.27 39.01 10.42L39.01 10.42L39.01 10.42Q38.80 10.56 38.72 10.76L38.72 10.76L38.72 10.76Q38.64 10.96 38.64 11.22L38.64 11.22L38.64 11.22Q38.64 11.48 38.71 11.66L38.71 11.66L38.71 11.66Q38.79 11.84 38.91 11.96L38.91 11.96L38.91 11.96Q39.04 12.08 39.21 12.13L39.21 12.13L39.21 12.13Q39.38 12.19 39.56 12.19L39.56 12.19L39.56 12.19Q39.81 12.19 40.10 12.08L40.10 12.08L40.10 12.08Q40.39 11.98 40.72 11.70L40.72 11.70ZM48.25 13.64L48.25 3.63L52.18 3.63L52.18 3.63Q53.50 3.63 54.51 3.96L54.51 3.96L54.51 3.96Q55.51 4.30 56.20 4.91L56.20 4.91L56.20 4.91Q56.89 5.52 57.24 6.38L57.24 6.38L57.24 6.38Q57.59 7.25 57.59 8.29L57.59 8.29L57.59 8.29Q57.59 8.92 57.46 9.56L57.46 9.56L57.46 9.56Q57.33 10.21 57.04 10.80L57.04 10.80L57.04 10.80Q56.75 11.40 56.30 11.92L56.30 11.92L56.30 11.92Q55.85 12.44 55.21 12.82L55.21 12.82L55.21 12.82Q54.58 13.21 53.75 13.43L53.75 13.43L53.75 13.43Q52.92 13.65 51.88 13.65L51.88 13.65L48.25 13.64ZM50.67 5.12L50.67 12.15L52.14 12.15L52.14 12.15Q52.90 12.15 53.45 11.88L53.45 11.88L53.45 11.88Q54.01 11.60 54.38 11.11L54.38 11.11L54.38 11.11Q54.74 10.62 54.92 9.96L54.92 9.96L54.92 9.96Q55.10 9.30 55.10 8.52L55.10 8.52L55.10 8.52Q55.10 6.81 54.29 5.96L54.29 5.96L54.29 5.96Q53.48 5.12 51.98 5.12L51.98 5.12L50.67 5.12ZM59.38 13.64L59.38 6.40L61.75 6.40L61.75 13.64L59.38 13.64ZM60.53 5.26L60.53 5.26L60.53 5.26Q60.22 5.26 59.98 5.17L59.98 5.17L59.98 5.17Q59.73 5.08 59.56 4.92L59.56 4.92L59.56 4.92Q59.38 4.76 59.29 4.55L59.29 4.55L59.29 4.55Q59.19 4.34 59.19 4.09L59.19 4.09L59.19 4.09Q59.19 3.84 59.30 3.62L59.30 3.62L59.30 3.62Q59.40 3.40 59.59 3.24L59.59 3.24L59.59 3.24Q59.77 3.08 60.03 2.98L60.03 2.98L60.03 2.98Q60.29 2.88 60.60 2.88L60.60 2.88L60.60 2.88Q60.90 2.88 61.15 2.98L61.15 2.98L61.15 2.98Q61.40 3.07 61.57 3.23L61.57 3.23L61.57 3.23Q61.75 3.38 61.84 3.60L61.84 3.60L61.84 3.60Q61.94 3.81 61.94 4.05L61.94 4.05L61.94 4.05Q61.94 4.31 61.83 4.53L61.83 4.53L61.83 4.53Q61.73 4.74 61.54 4.91L61.54 4.91L61.54 4.91Q61.36 5.07 61.10 5.16L61.10 5.16L61.10 5.16Q60.84 5.26 60.53 5.26ZM65.38 13.64L63.03 6.40L65.58 6.40L66.66 10.55L66.94 11.95L67.07 11.95L67.33 10.55L68.42 6.40L70.44 6.40L68.09 13.64L65.38 13.64ZM73.30 13.64L70.95 6.40L73.51 6.40L74.57 10.53L74.86 11.96L75.00 11.96L75.26 10.53L76.34 6.40L78.37 6.40L74.84 17.31L72.77 17.31L74.33 13.64L73.30 13.64ZM83.49 12.60L83.49 12.60L83.49 12.60Q83.28 12.77 83.02 12.97L83.02 12.97L83.02 12.97Q82.76 13.18 82.46 13.36L82.46 13.36L82.46 13.36Q82.15 13.54 81.80 13.66L81.80 13.66L81.80 13.66Q81.45 13.78 81.06 13.78L81.06 13.78L81.06 13.78Q80.59 13.78 80.23 13.60L80.23 13.60L80.23 13.60Q79.88 13.42 79.64 13.13L79.64 13.13L79.64 13.13Q79.41 12.83 79.29 12.46L79.29 12.46L79.29 12.46Q79.17 12.09 79.17 11.72L79.17 11.72L79.17 11.72Q79.17 11.22 79.40 10.77L79.40 10.77L79.40 10.77Q79.63 10.33 80.11 10.00L80.11 10.00L80.11 10.00Q80.60 9.67 81.35 9.47L81.35 9.47L81.35 9.47Q82.10 9.28 83.14 9.28L83.14 9.28L83.41 9.28L83.41 8.86L83.41 8.86Q83.41 8.31 83.06 8.02L83.06 8.02L83.06 8.02Q82.72 7.73 82.15 7.73L82.15 7.73L82.15 7.73Q81.89 7.73 81.62 7.79L81.62 7.79L81.62 7.79Q81.34 7.85 81.06 7.96L81.06 7.96L81.06 7.96Q80.78 8.07 80.51 8.21L80.51 8.21L80.51 8.21Q80.25 8.35 80.01 8.52L80.01 8.52L79.89 8.45L79.49 7.01L79.49 7.01Q80.37 6.60 81.16 6.43L81.16 6.43L81.16 6.43Q81.94 6.26 82.70 6.26L82.70 6.26L82.70 6.26Q83.35 6.26 83.91 6.38L83.91 6.38L83.91 6.38Q84.48 6.51 84.89 6.78L84.89 6.78L84.89 6.78Q85.31 7.06 85.54 7.51L85.54 7.51L85.54 7.51Q85.78 7.95 85.78 8.60L85.78 8.60L85.78 11.51L85.78 11.51Q85.78 11.63 85.80 11.75L85.80 11.75L85.80 11.75Q85.83 11.87 85.88 11.97L85.88 11.97L85.88 11.97Q85.93 12.07 86.03 12.13L86.03 12.13L86.03 12.13Q86.13 12.19 86.28 12.19L86.28 12.19L86.28 12.19Q86.37 12.19 86.46 12.17L86.46 12.17L86.46 12.17Q86.56 12.16 86.67 12.11L86.67 12.11L86.67 13.13L86.67 13.13Q86.23 13.43 85.78 13.61L85.78 13.61L85.78 13.61Q85.34 13.78 84.92 13.78L84.92 13.78L84.92 13.78Q84.38 13.78 84.03 13.47L84.03 13.47L84.03 13.47Q83.69 13.17 83.49 12.60ZM83.41 11.70L83.41 10.12L83.15 10.12L83.15 10.12Q82.61 10.12 82.25 10.20L82.25 10.20L82.25 10.20Q81.90 10.27 81.69 10.42L81.69 10.42L81.69 10.42Q81.48 10.56 81.40 10.76L81.40 10.76L81.40 10.76Q81.32 10.96 81.32 11.22L81.32 11.22L81.32 11.22Q81.32 11.48 81.40 11.66L81.40 11.66L81.40 11.66Q81.47 11.84 81.60 11.96L81.60 11.96L81.60 11.96Q81.72 12.08 81.89 12.13L81.89 12.13L81.89 12.13Q82.06 12.19 82.24 12.19L82.24 12.19L82.24 12.19Q82.50 12.19 82.79 12.08L82.79 12.08L82.79 12.08Q83.08 11.98 83.41 11.70L83.41 11.70Z"></path></g><!----><g data-v-423bf9ae="" id="f6d0bb9e-1df9-483a-80eb-18fcfc67740b" transform="matrix(2.8125,0,0,2.8125,0,0)" stroke="none" fill="white"><path d="M15.965 16.258l.707-.707 10.39 10.39-.707.707z"></path><path d="M4.935 26.357L26.018 5.274l.707.707L5.642 27.065z"></path><path d="M31 1v4.194h-4.194V1H31m1-1h-6.194v6.194H32V0zM31 26.806V31h-4.194v-4.194H31m1-1h-6.194V32H32v-6.194zM5.194 26.806V31H1v-4.194h4.194m1-1H0V32h6.194v-6.194z"></path></g><!----></svg>